<svg width="646" height="147" viewBox="0 0 646 147" fill="none" xmlns="http://www.w3.org/2000/svg">
<path d="M27.0105 18.5684H38.2648V26.3053H27.0105V18.5684Z" fill="#FF0000"/>
<path d="M40.5157 18.5684H51.77V26.3053H40.5157V18.5684Z" fill="#FF0000"/>
<path d="M27.0105 27.8526H38.2648V35.5895H27.0105V27.8526Z" fill="#FF0000"/>
<path d="M40.5157 27.8526H51.77V35.5895H40.5157V27.8526Z" fill="#FF0000"/>
<path d="M27.0105 0H38.2648V7.73684H27.0105V0Z" fill="#FF0000"/>
<path d="M40.5157 0H51.77V7.73684H40.5157V0Z" fill="#FF0000"/>
<path d="M27.0105 9.28421H38.2648V17.0211H27.0105V9.28421Z" fill="#FF0000"/>
<path d="M40.5157 9.28421H51.77V17.0211H40.5157V9.28421Z" fill="#FF0000"/>
<path d="M0 0H11.2544V7.73684H0V0Z" fill="#FF0000"/>
<path d="M13.5052 0H24.7596V7.73684H13.5052V0Z" fill="#FF0000"/>
<path d="M0 9.28421H11.2544V17.0211H0V9.28421Z" fill="#FF0000"/>
<path d="M13.5052 9.28421H24.7596V17.0211H13.5052V9.28421Z" fill="#FF0000"/>
<path d="M0 18.5684H11.2544V26.3053H0V18.5684Z" fill="#FF0000"/>
<path d="M13.5052 18.5684H24.7596V26.3053H13.5052V18.5684Z" fill="#FF0000"/>
<path d="M0 27.8526H11.2544V35.5895H0V27.8526Z" fill="#FF0000"/>
<path d="M13.5052 27.8526H24.7596V35.5895H13.5052V27.8526Z" fill="#FF0000"/>
<path d="M81.0313 18.5684H92.2857V26.3053H81.0313V18.5684Z" fill="#FF0000"/>
<path d="M94.5366 18.5684H105.791V26.3053H94.5366V18.5684Z" fill="#FF0000"/>
<path d="M81.0313 27.8526H92.2857V35.5895H81.0313V27.8526Z" fill="#FF0000"/>
<path d="M94.5366 27.8526H105.791V35.5895H94.5366V27.8526Z" fill="#FF0000"/>
<path d="M81.0313 0H92.2857V7.73684H81.0313V0Z" fill="#FF0000"/>
<path d="M94.5366 0H105.791V7.73684H94.5366V0Z" fill="#FF0000"/>
<path d="M81.0313 9.28421H92.2857V17.0211H81.0313V9.28421Z" fill="#FF0000"/>
<path d="M94.5366 9.28421H105.791V17.0211H94.5366V9.28421Z" fill="#FF0000"/>
<path d="M54.0209 0H65.2753V7.73684H54.0209V0Z" fill="#FF0000"/>
<path d="M67.5261 0H78.7805V7.73684H67.5261V0Z" fill="#FF0000"/>
<path d="M54.0209 9.28421H65.2753V17.0211H54.0209V9.28421Z" fill="#FF0000"/>
<path d="M67.5261 9.28421H78.7805V17.0211H67.5261V9.28421Z" fill="#FF0000"/>
<path d="M54.0209 18.5684H65.2753V26.3053H54.0209V18.5684Z" fill="#FF0000"/>
<path d="M67.5261 18.5684H78.7805V26.3053H67.5261V18.5684Z" fill="#FF0000"/>
<path d="M54.0209 27.8526H65.2753V35.5895H54.0209V27.8526Z" fill="#FF0000"/>
<path d="M67.5261 27.8526H78.7805V35.5895H67.5261V27.8526Z" fill="#FF0000"/>
<path d="M27.0105 55.7053H38.2648V63.4421H27.0105V55.7053Z" fill="#FF0000"/>
<path d="M40.5157 55.7053H51.77V63.4421H40.5157V55.7053Z" fill="#FF0000"/>
<path d="M27.0105 64.9895H38.2648V72.7263H27.0105V64.9895Z" fill="#FF0000"/>
<path d="M40.5157 64.9895H51.77V72.7263H40.5157V64.9895Z" fill="#FF0000"/>
<path d="M27.0105 37.1368H38.2648V44.8737H27.0105V37.1368Z" fill="#FF0000"/>
<path d="M40.5157 37.1368H51.77V44.8737H40.5157V37.1368Z" fill="#FF0000"/>
<path d="M27.0105 46.4211H38.2648V54.1579H27.0105V46.4211Z" fill="#FF0000"/>
<path d="M40.5157 46.4211H51.77V54.1579H40.5157V46.4211Z" fill="#FF0000"/>
<path d="M0 37.1368H11.2544V44.8737H0V37.1368Z" fill="#FF0000"/>
<path d="M13.5052 37.1368H24.7596V44.8737H13.5052V37.1368Z" fill="#FF0000"/>
<path d="M0 46.4211H11.2544V54.1579H0V46.4211Z" fill="#FF0000"/>
<path d="M13.5052 46.4211H24.7596V54.1579H13.5052V46.4211Z" fill="#FF0000"/>
<path d="M0 55.7053H11.2544V63.4421H0V55.7053Z" fill="#FF0000"/>
<path d="M13.5052 55.7053H24.7596V63.4421H13.5052V55.7053Z" fill="#FF0000"/>
<path d="M0 64.9895H11.2544V72.7263H0V64.9895Z" fill="#FF0000"/>
<path d="M13.5052 64.9895H24.7596V72.7263H13.5052V64.9895Z" fill="#FF0000"/>
<path d="M81.0313 55.7053H92.2857V63.4421H81.0313V55.7053Z" fill="#FF0000"/>
<path d="M94.5366 55.7053H105.791V63.4421H94.5366V55.7053Z" fill="#FF0000"/>
<path d="M81.0313 64.9895H92.2857V72.7263H81.0313V64.9895Z" fill="#FF0000"/>
<path d="M94.5366 64.9895H105.791V72.7263H94.5366V64.9895Z" fill="#FF0000"/>
<path d="M81.0313 37.1368H92.2857V44.8737H81.0313V37.1368Z" fill="#FF0000"/>
<path d="M94.5366 37.1368H105.791V44.8737H94.5366V37.1368Z" fill="#FF0000"/>
<path d="M81.0313 46.4211H92.2857V54.1579H81.0313V46.4211Z" fill="#FF0000"/>
<path d="M94.5366 46.4211H105.791V54.1579H94.5366V46.4211Z" fill="#FF0000"/>
<path d="M54.0209 37.1368H65.2753V44.8737H54.0209V37.1368Z" fill="#FF0000"/>
<path d="M67.5261 37.1368H78.7805V44.8737H67.5261V37.1368Z" fill="#FF0000"/>
<path d="M54.0209 46.4211H65.2753V54.1579H54.0209V46.4211Z" fill="#FF0000"/>
<path d="M67.5261 46.4211H78.7805V54.1579H67.5261V46.4211Z" fill="#FF0000"/>
<path d="M54.0209 55.7053H65.2753V63.4421H54.0209V55.7053Z" fill="#FF0000"/>
<path d="M67.5261 55.7053H78.7805V63.4421H67.5261V55.7053Z" fill="#FF0000"/>
<path d="M54.0209 64.9895H65.2753V72.7263H54.0209V64.9895Z" fill="#FF0000"/>
<path d="M67.5261 64.9895H78.7805V72.7263H67.5261V64.9895Z" fill="#FF0000"/>
<path d="M135.052 18.5684H146.307V26.3053H135.052V18.5684Z" fill="#FF0000"/>
<path d="M148.557 18.5684H159.812V26.3053H148.557V18.5684Z" fill="#FF0000"/>
<path d="M135.052 27.8526H146.307V35.5895H135.052V27.8526Z" fill="#FF0000"/>
<path d="M148.557 27.8526H159.812V35.5895H148.557V27.8526Z" fill="#FF0000"/>
<path d="M135.052 0H146.307V7.73684H135.052V0Z" fill="#FF0000"/>
<path d="M148.557 0H159.812V7.73684H148.557V0Z" fill="#FF0000"/>
<path d="M135.052 9.28421H146.307V17.0211H135.052V9.28421Z" fill="#FF0000"/>
<path d="M148.557 9.28421H159.812V17.0211H148.557V9.28421Z" fill="#FF0000"/>
<path d="M108.042 0H119.296V7.73684H108.042V0Z" fill="#FF0000"/>
<path d="M121.547 0H132.801V7.73684H121.547V0Z" fill="#FF0000"/>
<path d="M108.042 9.28421H119.296V17.0211H108.042V9.28421Z" fill="#FF0000"/>
<path d="M121.547 9.28421H132.801V17.0211H121.547V9.28421Z" fill="#FF0000"/>
<path d="M108.042 18.5684H119.296V26.3053H108.042V18.5684Z" fill="#FF0000"/>
<path d="M121.547 18.5684H132.801V26.3053H121.547V18.5684Z" fill="#FF0000"/>
<path d="M108.042 27.8526H119.296V35.5895H108.042V27.8526Z" fill="#FF0000"/>
<path d="M121.547 27.8526H132.801V35.5895H121.547V27.8526Z" fill="#FF0000"/>
<path d="M189.073 18.5684H200.328V26.3053H189.073V18.5684Z" fill="#FF0000"/>
<path d="M202.578 18.5684H213.833V26.3053H202.578V18.5684Z" fill="#FF0000"/>
<path d="M189.073 27.8526H200.328V35.5895H189.073V27.8526Z" fill="#FF0000"/>
<path d="M202.578 27.8526H213.833V35.5895H202.578V27.8526Z" fill="#FF0000"/>
<path d="M189.073 0H200.328V7.73684H189.073V0Z" fill="#FF0000"/>
<path d="M202.578 0H213.833V7.73684H202.578V0Z" fill="#FF0000"/>
<path d="M189.073 9.28421H200.328V17.0211H189.073V9.28421Z" fill="#FF0000"/>
<path d="M202.578 9.28421H213.833V17.0211H202.578V9.28421Z" fill="#FF0000"/>
<path d="M162.063 0H173.317V7.73684H162.063V0Z" fill="#FF0000"/>
<path d="M175.568 0H186.822V7.73684H175.568V0Z" fill="#FF0000"/>
<path d="M162.063 9.28421H173.317V17.0211H162.063V9.28421Z" fill="#FF0000"/>
<path d="M175.568 9.28421H186.822V17.0211H175.568V9.28421Z" fill="#FF0000"/>
<path d="M162.063 18.5684H173.317V26.3053H162.063V18.5684Z" fill="#FF0000"/>
<path d="M175.568 18.5684H186.822V26.3053H175.568V18.5684Z" fill="#FF0000"/>
<path d="M162.063 27.8526H173.317V35.5895H162.063V27.8526Z" fill="#FF0000"/>
<path d="M175.568 27.8526H186.822V35.5895H175.568V27.8526Z" fill="#FF0000"/>
<path d="M135.052 55.7053H146.307V63.4421H135.052V55.7053Z" fill="#FF0000"/>
<path d="M148.557 55.7053H159.812V63.4421H148.557V55.7053Z" fill="#FF0000"/>
<path d="M135.052 64.9895H146.307V72.7263H135.052V64.9895Z" fill="#FF0000"/>
<path d="M148.557 64.9895H159.812V72.7263H148.557V64.9895Z" fill="#FF0000"/>
<path d="M135.052 37.1368H146.307V44.8737H135.052V37.1368Z" fill="#FF0000"/>
<path d="M148.557 37.1368H159.812V44.8737H148.557V37.1368Z" fill="#FF0000"/>
<path d="M135.052 46.4211H146.307V54.1579H135.052V46.4211Z" fill="#FF0000"/>
<path d="M148.557 46.4211H159.812V54.1579H148.557V46.4211Z" fill="#FF0000"/>
<path d="M108.042 37.1368H119.296V44.8737H108.042V37.1368Z" fill="#FF0000"/>
<path d="M121.547 37.1368H132.801V44.8737H121.547V37.1368Z" fill="#FF0000"/>
<path d="M108.042 46.4211H119.296V54.1579H108.042V46.4211Z" fill="#FF0000"/>
<path d="M121.547 46.4211H132.801V54.1579H121.547V46.4211Z" fill="#FF0000"/>
<path d="M108.042 55.7053H119.296V63.4421H108.042V55.7053Z" fill="#FF0000"/>
<path d="M121.547 55.7053H132.801V63.4421H121.547V55.7053Z" fill="#FF0000"/>
<path d="M108.042 64.9895H119.296V72.7263H108.042V64.9895Z" fill="#FF0000"/>
<path d="M121.547 64.9895H132.801V72.7263H121.547V64.9895Z" fill="#FF0000"/>
<path d="M189.073 55.7053H200.328V63.4421H189.073V55.7053Z" fill="#FF0000"/>
<path d="M202.578 55.7053H213.833V63.4421H202.578V55.7053Z" fill="#FF0000"/>
<path d="M189.073 64.9895H200.328V72.7263H189.073V64.9895Z" fill="#FF0000"/>
<path d="M202.578 64.9895H213.833V72.7263H202.578V64.9895Z" fill="#FF0000"/>
<path d="M189.073 37.1368H200.328V44.8737H189.073V37.1368Z" fill="#FF0000"/>
<path d="M202.578 37.1368H213.833V44.8737H202.578V37.1368Z" fill="#FF0000"/>
<path d="M189.073 46.4211H200.328V54.1579H189.073V46.4211Z" fill="#FF0000"/>
<path d="M202.578 46.4211H213.833V54.1579H202.578V46.4211Z" fill="#FF0000"/>
<path d="M162.063 37.1368H173.317V44.8737H162.063V37.1368Z" fill="#FF0000"/>
<path d="M175.568 37.1368H186.822V44.8737H175.568V37.1368Z" fill="#FF0000"/>
<path d="M162.063 46.4211H173.317V54.1579H162.063V46.4211Z" fill="#FF0000"/>
<path d="M175.568 46.4211H186.822V54.1579H175.568V46.4211Z" fill="#FF0000"/>
<path d="M162.063 55.7053H173.317V63.4421H162.063V55.7053Z" fill="#FF0000"/>
<path d="M175.568 55.7053H186.822V63.4421H175.568V55.7053Z" fill="#FF0000"/>
<path d="M162.063 64.9895H173.317V72.7263H162.063V64.9895Z" fill="#FF0000"/>
<path d="M175.568 64.9895H186.822V72.7263H175.568V64.9895Z" fill="#FF0000"/>
<path d="M27.0105 92.8421H38.2648V100.579H27.0105V92.8421Z" fill="#FF0000"/>
<path d="M40.5157 92.8421H51.77V100.579H40.5157V92.8421Z" fill="#FF0000"/>
<path d="M27.0105 102.126H38.2648V109.863H27.0105V102.126Z" fill="#FF0000"/>
<path d="M40.5157 102.126H51.77V109.863H40.5157V102.126Z" fill="#FF0000"/>
<path d="M27.0105 74.2737H38.2648V82.0105H27.0105V74.2737Z" fill="#FF0000"/>
<path d="M40.5157 74.2737H51.77V82.0105H40.5157V74.2737Z" fill="#FF0000"/>
<path d="M27.0105 83.5579H38.2648V91.2947H27.0105V83.5579Z" fill="#FF0000"/>
<path d="M40.5157 83.5579H51.77V91.2947H40.5157V83.5579Z" fill="#FF0000"/>
<path d="M0 74.2737H11.2544V82.0105H0V74.2737Z" fill="#FF0000"/>
<path d="M13.5052 74.2737H24.7596V82.0105H13.5052V74.2737Z" fill="#FF0000"/>
<path d="M0 83.5579H11.2544V91.2947H0V83.5579Z" fill="#FF0000"/>
<path d="M13.5052 83.5579H24.7596V91.2947H13.5052V83.5579Z" fill="#FF0000"/>
<path d="M0 92.8421H11.2544V100.579H0V92.8421Z" fill="#FF0000"/>
<path d="M13.5052 92.8421H24.7596V100.579H13.5052V92.8421Z" fill="#FF0000"/>
<path d="M0 102.126H11.2544V109.863H0V102.126Z" fill="#FF0000"/>
<path d="M13.5052 102.126H24.7596V109.863H13.5052V102.126Z" fill="#FF0000"/>
<path d="M81.0313 92.8421H92.2857V100.579H81.0313V92.8421Z" fill="#FF0000"/>
<path d="M94.5366 92.8421H105.791V100.579H94.5366V92.8421Z" fill="#FF0000"/>
<path d="M81.0313 102.126H92.2857V109.863H81.0313V102.126Z" fill="#FF0000"/>
<path d="M94.5366 102.126H105.791V109.863H94.5366V102.126Z" fill="#FF0000"/>
<path d="M81.0313 74.2737H92.2857V82.0105H81.0313V74.2737Z" fill="#FF0000"/>
<path d="M94.5366 74.2737H105.791V82.0105H94.5366V74.2737Z" fill="#FF0000"/>
<path d="M81.0313 83.5579H92.2857V91.2947H81.0313V83.5579Z" fill="#FF0000"/>
<path d="M94.5366 83.5579H105.791V91.2947H94.5366V83.5579Z" fill="#FF0000"/>
<path d="M54.0209 74.2737H65.2753V82.0105H54.0209V74.2737Z" fill="#FF0000"/>
<path d="M67.5261 74.2737H78.7805V82.0105H67.5261V74.2737Z" fill="#FF0000"/>
<path d="M54.0209 83.5579H65.2753V91.2947H54.0209V83.5579Z" fill="#FF0000"/>
<path d="M67.5261 83.5579H78.7805V91.2947H67.5261V83.5579Z" fill="#FF0000"/>
<path d="M54.0209 92.8421H65.2753V100.579H54.0209V92.8421Z" fill="#FF0000"/>
<path d="M67.5261 92.8421H78.7805V100.579H67.5261V92.8421Z" fill="#FF0000"/>
<path d="M54.0209 102.126H65.2753V109.863H54.0209V102.126Z" fill="#FF0000"/>
<path d="M67.5261 102.126H78.7805V109.863H67.5261V102.126Z" fill="#FF0000"/>
<path d="M27.0105 129.979H38.2648V137.716H27.0105V129.979Z" fill="#FF0000"/>
<path d="M40.5157 129.979H51.77V137.716H40.5157V129.979Z" fill="#FF0000"/>
<path d="M27.0105 139.263H38.2648V147H27.0105V139.263Z" fill="#FF0000"/>
<path d="M40.5157 139.263H51.77V147H40.5157V139.263Z" fill="#FF0000"/>
<path d="M27.0105 111.411H38.2648V119.147H27.0105V111.411Z" fill="#FF0000"/>
<path d="M40.5157 111.411H51.77V119.147H40.5157V111.411Z" fill="#FF0000"/>
<path d="M27.0105 120.695H38.2648V128.432H27.0105V120.695Z" fill="#FF0000"/>
<path d="M40.5157 120.695H51.77V128.432H40.5157V120.695Z" fill="#FF0000"/>
<path d="M0 111.411H11.2544V119.147H0V111.411Z" fill="#FF0000"/>
<path d="M13.5052 111.411H24.7596V119.147H13.5052V111.411Z" fill="#FF0000"/>
<path d="M0 120.695H11.2544V128.432H0V120.695Z" fill="#FF0000"/>
<path d="M13.5052 120.695H24.7596V128.432H13.5052V120.695Z" fill="#FF0000"/>
<path d="M0 129.979H11.2544V137.716H0V129.979Z" fill="#FF0000"/>
<path d="M13.5052 129.979H24.7596V137.716H13.5052V129.979Z" fill="#FF0000"/>
<path d="M0 139.263H11.2544V147H0V139.263Z" fill="#FF0000"/>
<path d="M13.5052 139.263H24.7596V147H13.5052V139.263Z" fill="#FF0000"/>
<path d="M81.0313 129.979H92.2857V137.716H81.0313V129.979Z" fill="#FF0000"/>
<path d="M94.5366 129.979H105.791V137.716H94.5366V129.979Z" fill="#FF0000"/>
<path d="M81.0313 139.263H92.2857V147H81.0313V139.263Z" fill="#FF0000"/>
<path d="M94.5366 139.263H105.791V147H94.5366V139.263Z" fill="#FF0000"/>
<path d="M81.0313 111.411H92.2857V119.147H81.0313V111.411Z" fill="#FF0000"/>
<path d="M94.5366 111.411H105.791V119.147H94.5366V111.411Z" fill="#FF0000"/>
<path d="M81.0313 120.695H92.2857V128.432H81.0313V120.695Z" fill="#FF0000"/>
<path d="M94.5366 120.695H105.791V128.432H94.5366V120.695Z" fill="#FF0000"/>
<path d="M54.0209 111.411H65.2753V119.147H54.0209V111.411Z" fill="#FF0000"/>
<path d="M67.5261 111.411H78.7805V119.147H67.5261V111.411Z" fill="#FF0000"/>
<path d="M54.0209 120.695H65.2753V128.432H54.0209V120.695Z" fill="#FF0000"/>
<path d="M67.5261 120.695H78.7805V128.432H67.5261V120.695Z" fill="#FF0000"/>
<path d="M54.0209 129.979H65.2753V137.716H54.0209V129.979Z" fill="#FF0000"/>
<path d="M67.5261 129.979H78.7805V137.716H67.5261V129.979Z" fill="#FF0000"/>
<path d="M54.0209 139.263H65.2753V147H54.0209V139.263Z" fill="#FF0000"/>
<path d="M67.5261 139.263H78.7805V147H67.5261V139.263Z" fill="#FF0000"/>
<path d="M135.052 92.8421H146.307V100.579H135.052V92.8421Z" fill="#FF0000"/>
<path d="M148.557 92.8421H159.812V100.579H148.557V92.8421Z" fill="#FF0000"/>
<path d="M135.052 102.126H146.307V109.863H135.052V102.126Z" fill="#FF0000"/>
<path d="M148.557 102.126H159.812V109.863H148.557V102.126Z" fill="#FF0000"/>
<path d="M135.052 74.2737H146.307V82.0105H135.052V74.2737Z" fill="#FF0000"/>
<path d="M148.557 74.2737H159.812V82.0105H148.557V74.2737Z" fill="#FF0000"/>
<path d="M135.052 83.5579H146.307V91.2947H135.052V83.5579Z" fill="#FF0000"/>
<path d="M148.557 83.5579H159.812V91.2947H148.557V83.5579Z" fill="#FF0000"/>
<path d="M108.042 74.2737H119.296V82.0105H108.042V74.2737Z" fill="#FF0000"/>
<path d="M121.547 74.2737H132.801V82.0105H121.547V74.2737Z" fill="#FF0000"/>
<path d="M108.042 83.5579H119.296V91.2947H108.042V83.5579Z" fill="#FF0000"/>
<path d="M121.547 83.5579H132.801V91.2947H121.547V83.5579Z" fill="#FF0000"/>
<path d="M108.042 92.8421H119.296V100.579H108.042V92.8421Z" fill="#FF0000"/>
<path d="M121.547 92.8421H132.801V100.579H121.547V92.8421Z" fill="#FF0000"/>
<path d="M108.042 102.126H119.296V109.863H108.042V102.126Z" fill="#FF0000"/>
<path d="M121.547 102.126H132.801V109.863H121.547V102.126Z" fill="#FF0000"/>
<path d="M189.073 92.8421H200.328V100.579H189.073V92.8421Z" fill="#FF0000"/>
<path d="M202.578 92.8421H213.833V100.579H202.578V92.8421Z" fill="#FF0000"/>
<path d="M189.073 102.126H200.328V109.863H189.073V102.126Z" fill="#FF0000"/>
<path d="M202.578 102.126H213.833V109.863H202.578V102.126Z" fill="#FF0000"/>
<path d="M189.073 74.2737H200.328V82.0105H189.073V74.2737Z" fill="#FF0000"/>
<path d="M202.578 74.2737H213.833V82.0105H202.578V74.2737Z" fill="#FF0000"/>
<path d="M189.073 83.5579H200.328V91.2947H189.073V83.5579Z" fill="#FF0000"/>
<path d="M202.578 83.5579H213.833V91.2947H202.578V83.5579Z" fill="#FF0000"/>
<path d="M162.063 74.2737H173.317V82.0105H162.063V74.2737Z" fill="#FF0000"/>
<path d="M175.568 74.2737H186.822V82.0105H175.568V74.2737Z" fill="#FF0000"/>
<path d="M162.063 83.5579H173.317V91.2947H162.063V83.5579Z" fill="#FF0000"/>
<path d="M175.568 83.5579H186.822V91.2947H175.568V83.5579Z" fill="#FF0000"/>
<path d="M162.063 92.8421H173.317V100.579H162.063V92.8421Z" fill="#FF0000"/>
<path d="M175.568 92.8421H186.822V100.579H175.568V92.8421Z" fill="#FF0000"/>
<path d="M162.063 102.126H173.317V109.863H162.063V102.126Z" fill="#FF0000"/>
<path d="M175.568 102.126H186.822V109.863H175.568V102.126Z" fill="#FF0000"/>
<path d="M135.052 129.979H146.307V137.716H135.052V129.979Z" fill="#FF0000"/>
<path d="M148.557 129.979H159.812V137.716H148.557V129.979Z" fill="#FF0000"/>
<path d="M135.052 139.263H146.307V147H135.052V139.263Z" fill="#FF0000"/>
<path d="M148.557 139.263H159.812V147H148.557V139.263Z" fill="#FF0000"/>
<path d="M135.052 111.411H146.307V119.147H135.052V111.411Z" fill="#FF0000"/>
<path d="M148.557 111.411H159.812V119.147H148.557V111.411Z" fill="#FF0000"/>
<path d="M135.052 120.695H146.307V128.432H135.052V120.695Z" fill="#FF0000"/>
<path d="M148.557 120.695H159.812V128.432H148.557V120.695Z" fill="#FF0000"/>
<path d="M108.042 111.411H119.296V119.147H108.042V111.411Z" fill="#FF0000"/>
<path d="M121.547 111.411H132.801V119.147H121.547V111.411Z" fill="#FF0000"/>
<path d="M108.042 120.695H119.296V128.432H108.042V120.695Z" fill="#FF0000"/>
<path d="M121.547 120.695H132.801V128.432H121.547V120.695Z" fill="#FF0000"/>
<path d="M108.042 129.979H119.296V137.716H108.042V129.979Z" fill="#FF0000"/>
<path d="M121.547 129.979H132.801V137.716H121.547V129.979Z" fill="#FF0000"/>
<path d="M108.042 139.263H119.296V147H108.042V139.263Z" fill="#FF0000"/>
<path d="M121.547 139.263H132.801V147H121.547V139.263Z" fill="#FF0000"/>
<path d="M189.073 129.979H200.328V137.716H189.073V129.979Z" fill="#FF0000"/>
<path d="M202.578 129.979H213.833V137.716H202.578V129.979Z" fill="#FF0000"/>
<path d="M189.073 139.263H200.328V147H189.073V139.263Z" fill="#FF0000"/>
<path d="M202.578 139.263H213.833V147H202.578V139.263Z" fill="#FF0000"/>
<path d="M189.073 111.411H200.328V119.147H189.073V111.411Z" fill="#FF0000"/>
<path d="M202.578 111.411H213.833V119.147H202.578V111.411Z" fill="#FF0000"/>
<path d="M189.073 120.695H200.328V128.432H189.073V120.695Z" fill="#FF0000"/>
<path d="M202.578 120.695H213.833V128.432H202.578V120.695Z" fill="#FF0000"/>
<path d="M162.063 111.411H173.317V119.147H162.063V111.411Z" fill="#FF0000"/>
<path d="M175.568 111.411H186.822V119.147H175.568V111.411Z" fill="#FF0000"/>
<path d="M162.063 120.695H173.317V128.432H162.063V120.695Z" fill="#FF0000"/>
<path d="M175.568 120.695H186.822V128.432H175.568V120.695Z" fill="#FF0000"/>
<path d="M162.063 129.979H173.317V137.716H162.063V129.979Z" fill="#FF0000"/>
<path d="M175.568 129.979H186.822V137.716H175.568V129.979Z" fill="#FF0000"/>
<path d="M162.063 139.263H173.317V147H162.063V139.263Z" fill="#FF0000"/>
<path d="M175.568 139.263H186.822V147H175.568V139.263Z" fill="#FF0000"/>
<path d="M243.094 18.5684H254.348V26.3053H243.094V18.5684Z" fill="#FF0000"/>
<path d="M256.599 18.5684H267.854V26.3053H256.599V18.5684Z" fill="#FF0000"/>
<path d="M243.094 27.8526H254.348V35.5895H243.094V27.8526Z" fill="#FF0000"/>
<path d="M256.599 27.8526H267.854V35.5895H256.599V27.8526Z" fill="#FF0000"/>
<path d="M243.094 0H254.348V7.73684H243.094V0Z" fill="#FF0000"/>
<path d="M256.599 0H267.854V7.73684H256.599V0Z" fill="#FF0000"/>
<path d="M243.094 9.28421H254.348V17.0211H243.094V9.28421Z" fill="#FF0000"/>
<path d="M256.599 9.28421H267.854V17.0211H256.599V9.28421Z" fill="#FF0000"/>
<path d="M216.084 0H227.338V7.73684H216.084V0Z" fill="#FF0000"/>
<path d="M229.589 0H240.843V7.73684H229.589V0Z" fill="#FF0000"/>
<path d="M216.084 9.28421H227.338V17.0211H216.084V9.28421Z" fill="#FF0000"/>
<path d="M229.589 9.28421H240.843V17.0211H229.589V9.28421Z" fill="#FF0000"/>
<path d="M216.084 18.5684H227.338V26.3053H216.084V18.5684Z" fill="#FF0000"/>
<path d="M229.589 18.5684H240.843V26.3053H229.589V18.5684Z" fill="#FF0000"/>
<path d="M216.084 27.8526H227.338V35.5895H216.084V27.8526Z" fill="#FF0000"/>
<path d="M229.589 27.8526H240.843V35.5895H229.589V27.8526Z" fill="#FF0000"/>
<path d="M297.115 18.5684H308.369V26.3053H297.115V18.5684Z" fill="#FF0000"/>
<path d="M310.62 18.5684H321.875V26.3053H310.62V18.5684Z" fill="#FF0000"/>
<path d="M297.115 27.8526H308.369V35.5895H297.115V27.8526Z" fill="#FF0000"/>
<path d="M310.62 27.8526H321.875V35.5895H310.62V27.8526Z" fill="#FF0000"/>
<path d="M297.115 0H308.369V7.73684H297.115V0Z" fill="#FF0000"/>
<path d="M310.62 0H321.875V7.73684H310.62V0Z" fill="#FF0000"/>
<path d="M297.115 9.28421H308.369V17.0211H297.115V9.28421Z" fill="#FF0000"/>
<path d="M310.62 9.28421H321.875V17.0211H310.62V9.28421Z" fill="#FF0000"/>
<path d="M270.105 0H281.359V7.73684H270.105V0Z" fill="#FF0000"/>
<path d="M283.61 0H294.864V7.73684H283.61V0Z" fill="#FF0000"/>
<path d="M270.105 9.28421H281.359V17.0211H270.105V9.28421Z" fill="#FF0000"/>
<path d="M283.61 9.28421H294.864V17.0211H283.61V9.28421Z" fill="#FF0000"/>
<path d="M270.105 18.5684H281.359V26.3053H270.105V18.5684Z" fill="#FF0000"/>
<path d="M283.61 18.5684H294.864V26.3053H283.61V18.5684Z" fill="#FF0000"/>
<path d="M270.105 27.8526H281.359V35.5895H270.105V27.8526Z" fill="#FF0000"/>
<path d="M283.61 27.8526H294.864V35.5895H283.61V27.8526Z" fill="#FF0000"/>
<path d="M243.094 55.7053H254.348V63.4421H243.094V55.7053Z" fill="#FF0000"/>
<path d="M256.599 55.7053H267.854V63.4421H256.599V55.7053Z" fill="#FF0000"/>
<path d="M243.094 64.9895H254.348V72.7263H243.094V64.9895Z" fill="#FF0000"/>
<path d="M256.599 64.9895H267.854V72.7263H256.599V64.9895Z" fill="#FF0000"/>
<path d="M243.094 37.1368H254.348V44.8737H243.094V37.1368Z" fill="#FF0000"/>
<path d="M256.599 37.1368H267.854V44.8737H256.599V37.1368Z" fill="#FF0000"/>
<path d="M243.094 46.4211H254.348V54.1579H243.094V46.4211Z" fill="#FF0000"/>
<path d="M256.599 46.4211H267.854V54.1579H256.599V46.4211Z" fill="#FF0000"/>
<path d="M216.084 37.1368H227.338V44.8737H216.084V37.1368Z" fill="#FF0000"/>
<path d="M229.589 37.1368H240.843V44.8737H229.589V37.1368Z" fill="#FF0000"/>
<path d="M216.084 46.4211H227.338V54.1579H216.084V46.4211Z" fill="#FF0000"/>
<path d="M229.589 46.4211H240.843V54.1579H229.589V46.4211Z" fill="#FF0000"/>
<path d="M216.084 55.7053H227.338V63.4421H216.084V55.7053Z" fill="#FF0000"/>
<path d="M229.589 55.7053H240.843V63.4421H229.589V55.7053Z" fill="#FF0000"/>
<path d="M216.084 64.9895H227.338V72.7263H216.084V64.9895Z" fill="#FF0000"/>
<path d="M229.589 64.9895H240.843V72.7263H229.589V64.9895Z" fill="#FF0000"/>
<path d="M297.115 55.7053H308.369V63.4421H297.115V55.7053Z" fill="#FF0000"/>
<path d="M310.62 55.7053H321.875V63.4421H310.62V55.7053Z" fill="#FF0000"/>
<path d="M297.115 64.9895H308.369V72.7263H297.115V64.9895Z" fill="#FF0000"/>
<path d="M310.62 64.9895H321.875V72.7263H310.62V64.9895Z" fill="#FF0000"/>
<path d="M297.115 37.1368H308.369V44.8737H297.115V37.1368Z" fill="#FF0000"/>
<path d="M310.62 37.1368H321.875V44.8737H310.62V37.1368Z" fill="#FF0000"/>
<path d="M297.115 46.4211H308.369V54.1579H297.115V46.4211Z" fill="#FF0000"/>
<path d="M310.62 46.4211H321.875V54.1579H310.62V46.4211Z" fill="#FF0000"/>
<path d="M270.105 37.1368H281.359V44.8737H270.105V37.1368Z" fill="#FF0000"/>
<path d="M283.61 37.1368H294.864V44.8737H283.61V37.1368Z" fill="#FF0000"/>
<path d="M270.105 46.4211H281.359V54.1579H270.105V46.4211Z" fill="#FF0000"/>
<path d="M283.61 46.4211H294.864V54.1579H283.61V46.4211Z" fill="#FF0000"/>
<path d="M270.105 55.7053H281.359V63.4421H270.105V55.7053Z" fill="#FF0000"/>
<path d="M283.61 55.7053H294.864V63.4421H283.61V55.7053Z" fill="#FF0000"/>
<path d="M270.105 64.9895H281.359V72.7263H270.105V64.9895Z" fill="#FF0000"/>
<path d="M283.61 64.9895H294.864V72.7263H283.61V64.9895Z" fill="#FF0000"/>
<path d="M351.136 18.5684H362.39V26.3053H351.136V18.5684Z" fill="#FF0000"/>
<path d="M364.641 18.5684H375.895V26.3053H364.641V18.5684Z" fill="#FF0000"/>
<path d="M351.136 27.8526H362.39V35.5895H351.136V27.8526Z" fill="#FF0000"/>
<path d="M364.641 27.8526H375.895V35.5895H364.641V27.8526Z" fill="#FF0000"/>
<path d="M351.136 0H362.39V7.73684H351.136V0Z" fill="#FF0000"/>
<path d="M364.641 0H375.895V7.73684H364.641V0Z" fill="#FF0000"/>
<path d="M351.136 9.28421H362.39V17.0211H351.136V9.28421Z" fill="#FF0000"/>
<path d="M364.641 9.28421H375.895V17.0211H364.641V9.28421Z" fill="#FF0000"/>
<path d="M324.125 0H335.38V7.73684H324.125V0Z" fill="#FF0000"/>
<path d="M337.631 0H348.885V7.73684H337.631V0Z" fill="#FF0000"/>
<path d="M324.125 9.28421H335.38V17.0211H324.125V9.28421Z" fill="#FF0000"/>
<path d="M337.631 9.28421H348.885V17.0211H337.631V9.28421Z" fill="#FF0000"/>
<path d="M324.125 18.5684H335.38V26.3053H324.125V18.5684Z" fill="#FF0000"/>
<path d="M337.631 18.5684H348.885V26.3053H337.631V18.5684Z" fill="#FF0000"/>
<path d="M324.125 27.8526H335.38V35.5895H324.125V27.8526Z" fill="#FF0000"/>
<path d="M337.631 27.8526H348.885V35.5895H337.631V27.8526Z" fill="#FF0000"/>
<path d="M405.157 18.5684H416.411V26.3053H405.157V18.5684Z" fill="#FF0000"/>
<path d="M418.662 18.5684H429.916V26.3053H418.662V18.5684Z" fill="#FF0000"/>
<path d="M405.157 27.8526H416.411V35.5895H405.157V27.8526Z" fill="#FF0000"/>
<path d="M418.662 27.8526H429.916V35.5895H418.662V27.8526Z" fill="#FF0000"/>
<path d="M405.157 0H416.411V7.73684H405.157V0Z" fill="#FF0000"/>
<path d="M418.662 0H429.916V7.73684H418.662V0Z" fill="#FF0000"/>
<path d="M405.157 9.28421H416.411V17.0211H405.157V9.28421Z" fill="#FF0000"/>
<path d="M418.662 9.28421H429.916V17.0211H418.662V9.28421Z" fill="#FF0000"/>
<path d="M378.146 0H389.401V7.73684H378.146V0Z" fill="#FF0000"/>
<path d="M391.652 0H402.906V7.73684H391.652V0Z" fill="#FF0000"/>
<path d="M378.146 9.28421H389.401V17.0211H378.146V9.28421Z" fill="#FF0000"/>
<path d="M391.652 9.28421H402.906V17.0211H391.652V9.28421Z" fill="#FF0000"/>
<path d="M378.146 18.5684H389.401V26.3053H378.146V18.5684Z" fill="#FF0000"/>
<path d="M391.652 18.5684H402.906V26.3053H391.652V18.5684Z" fill="#FF0000"/>
<path d="M378.146 27.8526H389.401V35.5895H378.146V27.8526Z" fill="#FF0000"/>
<path d="M391.652 27.8526H402.906V35.5895H391.652V27.8526Z" fill="#FF0000"/>
<path d="M351.136 55.7053H362.39V63.4421H351.136V55.7053Z" fill="#FF0000"/>
<path d="M364.641 55.7053H375.895V63.4421H364.641V55.7053Z" fill="#FF0000"/>
<path d="M351.136 64.9895H362.39V72.7263H351.136V64.9895Z" fill="#FF0000"/>
<path d="M364.641 64.9895H375.895V72.7263H364.641V64.9895Z" fill="#FF0000"/>
<path d="M351.136 37.1368H362.39V44.8737H351.136V37.1368Z" fill="#FF0000"/>
<path d="M364.641 37.1368H375.895V44.8737H364.641V37.1368Z" fill="#FF0000"/>
<path d="M351.136 46.4211H362.39V54.1579H351.136V46.4211Z" fill="#FF0000"/>
<path d="M364.641 46.4211H375.895V54.1579H364.641V46.4211Z" fill="#FF0000"/>
<path d="M324.125 37.1368H335.38V44.8737H324.125V37.1368Z" fill="#FF0000"/>
<path d="M337.631 37.1368H348.885V44.8737H337.631V37.1368Z" fill="#FF0000"/>
<path d="M324.125 46.4211H335.38V54.1579H324.125V46.4211Z" fill="#FF0000"/>
<path d="M337.631 46.4211H348.885V54.1579H337.631V46.4211Z" fill="#FF0000"/>
<path d="M324.125 55.7053H335.38V63.4421H324.125V55.7053Z" fill="#FF0000"/>
<path d="M337.631 55.7053H348.885V63.4421H337.631V55.7053Z" fill="#FF0000"/>
<path d="M324.125 64.9895H335.38V72.7263H324.125V64.9895Z" fill="#FF0000"/>
<path d="M337.631 64.9895H348.885V72.7263H337.631V64.9895Z" fill="#FF0000"/>
<path d="M405.157 55.7053H416.411V63.4421H405.157V55.7053Z" fill="#FF0000"/>
<path d="M418.662 55.7053H429.916V63.4421H418.662V55.7053Z" fill="#FF0000"/>
<path d="M405.157 64.9895H416.411V72.7263H405.157V64.9895Z" fill="#FF0000"/>
<path d="M418.662 64.9895H429.916V72.7263H418.662V64.9895Z" fill="#FF0000"/>
<path d="M405.157 37.1368H416.411V44.8737H405.157V37.1368Z" fill="#FF0000"/>
<path d="M418.662 37.1368H429.916V44.8737H418.662V37.1368Z" fill="#FF0000"/>
<path d="M405.157 46.4211H416.411V54.1579H405.157V46.4211Z" fill="#FF0000"/>
<path d="M418.662 46.4211H429.916V54.1579H418.662V46.4211Z" fill="#FF0000"/>
<path d="M378.146 37.1368H389.401V44.8737H378.146V37.1368Z" fill="#FF0000"/>
<path d="M391.652 37.1368H402.906V44.8737H391.652V37.1368Z" fill="#FF0000"/>
<path d="M378.146 46.4211H389.401V54.1579H378.146V46.4211Z" fill="#FF0000"/>
<path d="M391.652 46.4211H402.906V54.1579H391.652V46.4211Z" fill="#FF0000"/>
<path d="M378.146 55.7053H389.401V63.4421H378.146V55.7053Z" fill="#FF0000"/>
<path d="M391.652 55.7053H402.906V63.4421H391.652V55.7053Z" fill="#FF0000"/>
<path d="M378.146 64.9895H389.401V72.7263H378.146V64.9895Z" fill="#FF0000"/>
<path d="M391.652 64.9895H402.906V72.7263H391.652V64.9895Z" fill="#FF0000"/>
<path d="M243.094 92.8421H254.348V100.579H243.094V92.8421Z" fill="#FF0000"/>
<path d="M256.599 92.8421H267.854V100.579H256.599V92.8421Z" fill="#FF0000"/>
<path d="M243.094 102.126H254.348V109.863H243.094V102.126Z" fill="#FF0000"/>
<path d="M256.599 102.126H267.854V109.863H256.599V102.126Z" fill="#FF0000"/>
<path d="M243.094 74.2737H254.348V82.0105H243.094V74.2737Z" fill="#FF0000"/>
<path d="M256.599 74.2737H267.854V82.0105H256.599V74.2737Z" fill="#FF0000"/>
<path d="M243.094 83.5579H254.348V91.2947H243.094V83.5579Z" fill="#FF0000"/>
<path d="M256.599 83.5579H267.854V91.2947H256.599V83.5579Z" fill="#FF0000"/>
<path d="M216.084 74.2737H227.338V82.0105H216.084V74.2737Z" fill="#FF0000"/>
<path d="M229.589 74.2737H240.843V82.0105H229.589V74.2737Z" fill="#FF0000"/>
<path d="M216.084 83.5579H227.338V91.2947H216.084V83.5579Z" fill="#FF0000"/>
<path d="M229.589 83.5579H240.843V91.2947H229.589V83.5579Z" fill="#FF0000"/>
<path d="M216.084 92.8421H227.338V100.579H216.084V92.8421Z" fill="#FF0000"/>
<path d="M229.589 92.8421H240.843V100.579H229.589V92.8421Z" fill="#FF0000"/>
<path d="M216.084 102.126H227.338V109.863H216.084V102.126Z" fill="#FF0000"/>
<path d="M229.589 102.126H240.843V109.863H229.589V102.126Z" fill="#FF0000"/>
<path d="M297.115 92.8421H308.369V100.579H297.115V92.8421Z" fill="#FF0000"/>
<path d="M310.62 92.8421H321.875V100.579H310.62V92.8421Z" fill="#FF0000"/>
<path d="M297.115 102.126H308.369V109.863H297.115V102.126Z" fill="#FF0000"/>
<path d="M310.62 102.126H321.875V109.863H310.62V102.126Z" fill="#FF0000"/>
<path d="M297.115 74.2737H308.369V82.0105H297.115V74.2737Z" fill="#FF0000"/>
<path d="M310.62 74.2737H321.875V82.0105H310.62V74.2737Z" fill="#FF0000"/>
<path d="M297.115 83.5579H308.369V91.2947H297.115V83.5579Z" fill="#FF0000"/>
<path d="M310.62 83.5579H321.875V91.2947H310.62V83.5579Z" fill="#FF0000"/>
<path d="M270.105 74.2737H281.359V82.0105H270.105V74.2737Z" fill="#FF0000"/>
<path d="M283.61 74.2737H294.864V82.0105H283.61V74.2737Z" fill="#FF0000"/>
<path d="M270.105 83.5579H281.359V91.2947H270.105V83.5579Z" fill="#FF0000"/>
<path d="M283.61 83.5579H294.864V91.2947H283.61V83.5579Z" fill="#FF0000"/>
<path d="M270.105 92.8421H281.359V100.579H270.105V92.8421Z" fill="#FF0000"/>
<path d="M283.61 92.8421H294.864V100.579H283.61V92.8421Z" fill="#FF0000"/>
<path d="M270.105 102.126H281.359V109.863H270.105V102.126Z" fill="#FF0000"/>
<path d="M283.61 102.126H294.864V109.863H283.61V102.126Z" fill="#FF0000"/>
<path d="M243.094 129.979H254.348V137.716H243.094V129.979Z" fill="#FF0000"/>
<path d="M256.599 129.979H267.854V137.716H256.599V129.979Z" fill="#FF0000"/>
<path d="M243.094 139.263H254.348V147H243.094V139.263Z" fill="#FF0000"/>
<path d="M256.599 139.263H267.854V147H256.599V139.263Z" fill="#FF0000"/>
<path d="M243.094 111.411H254.348V119.147H243.094V111.411Z" fill="#FF0000"/>
<path d="M256.599 111.411H267.854V119.147H256.599V111.411Z" fill="#FF0000"/>
<path d="M243.094 120.695H254.348V128.432H243.094V120.695Z" fill="#FF0000"/>
<path d="M256.599 120.695H267.854V128.432H256.599V120.695Z" fill="#FF0000"/>
<path d="M216.084 111.411H227.338V119.147H216.084V111.411Z" fill="#FF0000"/>
<path d="M229.589 111.411H240.843V119.147H229.589V111.411Z" fill="#FF0000"/>
<path d="M216.084 120.695H227.338V128.432H216.084V120.695Z" fill="#FF0000"/>
<path d="M229.589 120.695H240.843V128.432H229.589V120.695Z" fill="#FF0000"/>
<path d="M216.084 129.979H227.338V137.716H216.084V129.979Z" fill="#FF0000"/>
<path d="M229.589 129.979H240.843V137.716H229.589V129.979Z" fill="#FF0000"/>
<path d="M216.084 139.263H227.338V147H216.084V139.263Z" fill="#FF0000"/>
<path d="M229.589 139.263H240.843V147H229.589V139.263Z" fill="#FF0000"/>
<path d="M297.115 129.979H308.369V137.716H297.115V129.979Z" fill="#FF0000"/>
<path d="M310.62 129.979H321.875V137.716H310.62V129.979Z" fill="#FF0000"/>
<path d="M297.115 139.263H308.369V147H297.115V139.263Z" fill="#FF0000"/>
<path d="M310.62 139.263H321.875V147H310.62V139.263Z" fill="#FF0000"/>
<path d="M297.115 111.411H308.369V119.147H297.115V111.411Z" fill="#FF0000"/>
<path d="M310.62 111.411H321.875V119.147H310.62V111.411Z" fill="#FF0000"/>
<path d="M297.115 120.695H308.369V128.432H297.115V120.695Z" fill="#FF0000"/>
<path d="M310.62 120.695H321.875V128.432H310.62V120.695Z" fill="#FF0000"/>
<path d="M270.105 111.411H281.359V119.147H270.105V111.411Z" fill="#FF0000"/>
<path d="M283.61 111.411H294.864V119.147H283.61V111.411Z" fill="#FF0000"/>
<path d="M270.105 120.695H281.359V128.432H270.105V120.695Z" fill="#FF0000"/>
<path d="M283.61 120.695H294.864V128.432H283.61V120.695Z" fill="#FF0000"/>
<path d="M270.105 129.979H281.359V137.716H270.105V129.979Z" fill="#FF0000"/>
<path d="M283.61 129.979H294.864V137.716H283.61V129.979Z" fill="#FF0000"/>
<path d="M270.105 139.263H281.359V147H270.105V139.263Z" fill="#FF0000"/>
<path d="M283.61 139.263H294.864V147H283.61V139.263Z" fill="#FF0000"/>
<path d="M351.136 92.8421H362.39V100.579H351.136V92.8421Z" fill="#FF0000"/>
<path d="M364.641 92.8421H375.895V100.579H364.641V92.8421Z" fill="#FF0000"/>
<path d="M351.136 102.126H362.39V109.863H351.136V102.126Z" fill="#FF0000"/>
<path d="M364.641 102.126H375.895V109.863H364.641V102.126Z" fill="#FF0000"/>
<path d="M351.136 74.2737H362.39V82.0105H351.136V74.2737Z" fill="#FF0000"/>
<path d="M364.641 74.2737H375.895V82.0105H364.641V74.2737Z" fill="#FF0000"/>
<path d="M351.136 83.5579H362.39V91.2947H351.136V83.5579Z" fill="#FF0000"/>
<path d="M364.641 83.5579H375.895V91.2947H364.641V83.5579Z" fill="#FF0000"/>
<path d="M324.125 74.2737H335.38V82.0105H324.125V74.2737Z" fill="#FF0000"/>
<path d="M337.631 74.2737H348.885V82.0105H337.631V74.2737Z" fill="#FF0000"/>
<path d="M324.125 83.5579H335.38V91.2947H324.125V83.5579Z" fill="#FF0000"/>
<path d="M337.631 83.5579H348.885V91.2947H337.631V83.5579Z" fill="#FF0000"/>
<path d="M324.125 92.8421H335.38V100.579H324.125V92.8421Z" fill="#FF0000"/>
<path d="M337.631 92.8421H348.885V100.579H337.631V92.8421Z" fill="#FF0000"/>
<path d="M324.125 102.126H335.38V109.863H324.125V102.126Z" fill="#FF0000"/>
<path d="M337.631 102.126H348.885V109.863H337.631V102.126Z" fill="#FF0000"/>
<path d="M405.157 92.8421H416.411V100.579H405.157V92.8421Z" fill="#FF0000"/>
<path d="M418.662 92.8421H429.916V100.579H418.662V92.8421Z" fill="#FF0000"/>
<path d="M405.157 102.126H416.411V109.863H405.157V102.126Z" fill="#FF0000"/>
<path d="M418.662 102.126H429.916V109.863H418.662V102.126Z" fill="#FF0000"/>
<path d="M405.157 74.2737H416.411V82.0105H405.157V74.2737Z" fill="#FF0000"/>
<path d="M418.662 74.2737H429.916V82.0105H418.662V74.2737Z" fill="#FF0000"/>
<path d="M405.157 83.5579H416.411V91.2947H405.157V83.5579Z" fill="#FF0000"/>
<path d="M418.662 83.5579H429.916V91.2947H418.662V83.5579Z" fill="#FF0000"/>
<path d="M378.146 74.2737H389.401V82.0105H378.146V74.2737Z" fill="#FF0000"/>
<path d="M391.652 74.2737H402.906V82.0105H391.652V74.2737Z" fill="#FF0000"/>
<path d="M378.146 83.5579H389.401V91.2947H378.146V83.5579Z" fill="#FF0000"/>
<path d="M391.652 83.5579H402.906V91.2947H391.652V83.5579Z" fill="#FF0000"/>
<path d="M378.146 92.8421H389.401V100.579H378.146V92.8421Z" fill="#FF0000"/>
<path d="M391.652 92.8421H402.906V100.579H391.652V92.8421Z" fill="#FF0000"/>
<path d="M378.146 102.126H389.401V109.863H378.146V102.126Z" fill="#FF0000"/>
<path d="M391.652 102.126H402.906V109.863H391.652V102.126Z" fill="#FF0000"/>
<path d="M351.136 129.979H362.39V137.716H351.136V129.979Z" fill="#FF0000"/>
<path d="M364.641 129.979H375.895V137.716H364.641V129.979Z" fill="#FF0000"/>
<path d="M351.136 139.263H362.39V147H351.136V139.263Z" fill="#FF0000"/>
<path d="M364.641 139.263H375.895V147H364.641V139.263Z" fill="#FF0000"/>
<path d="M351.136 111.411H362.39V119.147H351.136V111.411Z" fill="#FF0000"/>
<path d="M364.641 111.411H375.895V119.147H364.641V111.411Z" fill="#FF0000"/>
<path d="M351.136 120.695H362.39V128.432H351.136V120.695Z" fill="#FF0000"/>
<path d="M364.641 120.695H375.895V128.432H364.641V120.695Z" fill="#FF0000"/>
<path d="M324.125 111.411H335.38V119.147H324.125V111.411Z" fill="#FF0000"/>
<path d="M337.631 111.411H348.885V119.147H337.631V111.411Z" fill="#FF0000"/>
<path d="M324.125 120.695H335.38V128.432H324.125V120.695Z" fill="#FF0000"/>
<path d="M337.631 120.695H348.885V128.432H337.631V120.695Z" fill="#FF0000"/>
<path d="M324.125 129.979H335.38V137.716H324.125V129.979Z" fill="#FF0000"/>
<path d="M337.631 129.979H348.885V137.716H337.631V129.979Z" fill="#FF0000"/>
<path d="M324.125 139.263H335.38V147H324.125V139.263Z" fill="#FF0000"/>
<path d="M337.631 139.263H348.885V147H337.631V139.263Z" fill="#FF0000"/>
<path d="M405.157 129.979H416.411V137.716H405.157V129.979Z" fill="#FF0000"/>
<path d="M418.662 129.979H429.916V137.716H418.662V129.979Z" fill="#FF0000"/>
<path d="M405.157 139.263H416.411V147H405.157V139.263Z" fill="#FF0000"/>
<path d="M418.662 139.263H429.916V147H418.662V139.263Z" fill="#FF0000"/>
<path d="M405.157 111.411H416.411V119.147H405.157V111.411Z" fill="#FF0000"/>
<path d="M418.662 111.411H429.916V119.147H418.662V111.411Z" fill="#FF0000"/>
<path d="M405.157 120.695H416.411V128.432H405.157V120.695Z" fill="#FF0000"/>
<path d="M418.662 120.695H429.916V128.432H418.662V120.695Z" fill="#FF0000"/>
<path d="M378.146 111.411H389.401V119.147H378.146V111.411Z" fill="#FF0000"/>
<path d="M391.652 111.411H402.906V119.147H391.652V111.411Z" fill="#FF0000"/>
<path d="M378.146 120.695H389.401V128.432H378.146V120.695Z" fill="#FF0000"/>
<path d="M391.652 120.695H402.906V128.432H391.652V120.695Z" fill="#FF0000"/>
<path d="M378.146 129.979H389.401V137.716H378.146V129.979Z" fill="#FF0000"/>
<path d="M391.652 129.979H402.906V137.716H391.652V129.979Z" fill="#FF0000"/>
<path d="M378.146 139.263H389.401V147H378.146V139.263Z" fill="#FF0000"/>
<path d="M391.652 139.263H402.906V147H391.652V139.263Z" fill="#FF0000"/>
<path d="M459.178 18.5684H470.432V26.3053H459.178V18.5684Z" fill="#FF0000"/>
<path d="M472.683 18.5684H483.937V26.3053H472.683V18.5684Z" fill="#FF0000"/>
<path d="M459.178 27.8526H470.432V35.5895H459.178V27.8526Z" fill="#FF0000"/>
<path d="M472.683 27.8526H483.937V35.5895H472.683V27.8526Z" fill="#FF0000"/>
<path d="M459.178 0H470.432V7.73684H459.178V0Z" fill="#FF0000"/>
<path d="M472.683 0H483.937V7.73684H472.683V0Z" fill="#FF0000"/>
<path d="M459.178 9.28421H470.432V17.0211H459.178V9.28421Z" fill="#FF0000"/>
<path d="M472.683 9.28421H483.937V17.0211H472.683V9.28421Z" fill="#FF0000"/>
<path d="M432.167 0H443.422V7.73684H432.167V0Z" fill="#FF0000"/>
<path d="M445.672 0H456.927V7.73684H445.672V0Z" fill="#FF0000"/>
<path d="M432.167 9.28421H443.422V17.0211H432.167V9.28421Z" fill="#FF0000"/>
<path d="M445.672 9.28421H456.927V17.0211H445.672V9.28421Z" fill="#FF0000"/>
<path d="M432.167 18.5684H443.422V26.3053H432.167V18.5684Z" fill="#FF0000"/>
<path d="M445.672 18.5684H456.927V26.3053H445.672V18.5684Z" fill="#FF0000"/>
<path d="M432.167 27.8526H443.422V35.5895H432.167V27.8526Z" fill="#FF0000"/>
<path d="M445.672 27.8526H456.927V35.5895H445.672V27.8526Z" fill="#FF0000"/>
<path d="M513.199 18.5684H524.453V26.3053H513.199V18.5684Z" fill="#FF0000"/>
<path d="M526.704 18.5684H537.958V26.3053H526.704V18.5684Z" fill="#FF0000"/>
<path d="M513.199 27.8526H524.453V35.5895H513.199V27.8526Z" fill="#FF0000"/>
<path d="M526.704 27.8526H537.958V35.5895H526.704V27.8526Z" fill="#FF0000"/>
<path d="M513.199 0H524.453V7.73684H513.199V0Z" fill="#FF0000"/>
<path d="M526.704 0H537.958V7.73684H526.704V0Z" fill="#FF0000"/>
<path d="M513.199 9.28421H524.453V17.0211H513.199V9.28421Z" fill="#FF0000"/>
<path d="M526.704 9.28421H537.958V17.0211H526.704V9.28421Z" fill="#FF0000"/>
<path d="M486.188 0H497.442V7.73684H486.188V0Z" fill="#FF0000"/>
<path d="M499.693 0H510.948V7.73684H499.693V0Z" fill="#FF0000"/>
<path d="M486.188 9.28421H497.442V17.0211H486.188V9.28421Z" fill="#FF0000"/>
<path d="M499.693 9.28421H510.948V17.0211H499.693V9.28421Z" fill="#FF0000"/>
<path d="M486.188 18.5684H497.442V26.3053H486.188V18.5684Z" fill="#FF0000"/>
<path d="M499.693 18.5684H510.948V26.3053H499.693V18.5684Z" fill="#FF0000"/>
<path d="M486.188 27.8526H497.442V35.5895H486.188V27.8526Z" fill="#FF0000"/>
<path d="M499.693 27.8526H510.948V35.5895H499.693V27.8526Z" fill="#FF0000"/>
<path d="M459.178 55.7053H470.432V63.4421H459.178V55.7053Z" fill="#FF0000"/>
<path d="M472.683 55.7053H483.937V63.4421H472.683V55.7053Z" fill="#FF0000"/>
<path d="M459.178 64.9895H470.432V72.7263H459.178V64.9895Z" fill="#FF0000"/>
<path d="M472.683 64.9895H483.937V72.7263H472.683V64.9895Z" fill="#FF0000"/>
<path d="M459.178 37.1368H470.432V44.8737H459.178V37.1368Z" fill="#FF0000"/>
<path d="M472.683 37.1368H483.937V44.8737H472.683V37.1368Z" fill="#FF0000"/>
<path d="M459.178 46.4211H470.432V54.1579H459.178V46.4211Z" fill="#FF0000"/>
<path d="M472.683 46.4211H483.937V54.1579H472.683V46.4211Z" fill="#FF0000"/>
<path d="M432.167 37.1368H443.422V44.8737H432.167V37.1368Z" fill="#FF0000"/>
<path d="M445.672 37.1368H456.927V44.8737H445.672V37.1368Z" fill="#FF0000"/>
<path d="M432.167 46.4211H443.422V54.1579H432.167V46.4211Z" fill="#FF0000"/>
<path d="M445.672 46.4211H456.927V54.1579H445.672V46.4211Z" fill="#FF0000"/>
<path d="M432.167 55.7053H443.422V63.4421H432.167V55.7053Z" fill="#FF0000"/>
<path d="M445.672 55.7053H456.927V63.4421H445.672V55.7053Z" fill="#FF0000"/>
<path d="M432.167 64.9895H443.422V72.7263H432.167V64.9895Z" fill="#FF0000"/>
<path d="M445.672 64.9895H456.927V72.7263H445.672V64.9895Z" fill="#FF0000"/>
<path d="M513.199 55.7053H524.453V63.4421H513.199V55.7053Z" fill="#FF0000"/>
<path d="M526.704 55.7053H537.958V63.4421H526.704V55.7053Z" fill="#FF0000"/>
<path d="M513.199 64.9895H524.453V72.7263H513.199V64.9895Z" fill="#FF0000"/>
<path d="M526.704 64.9895H537.958V72.7263H526.704V64.9895Z" fill="#FF0000"/>
<path d="M513.199 37.1368H524.453V44.8737H513.199V37.1368Z" fill="#FF0000"/>
<path d="M526.704 37.1368H537.958V44.8737H526.704V37.1368Z" fill="#FF0000"/>
<path d="M513.199 46.4211H524.453V54.1579H513.199V46.4211Z" fill="#FF0000"/>
<path d="M526.704 46.4211H537.958V54.1579H526.704V46.4211Z" fill="#FF0000"/>
<path d="M486.188 37.1368H497.442V44.8737H486.188V37.1368Z" fill="#FF0000"/>
<path d="M499.693 37.1368H510.948V44.8737H499.693V37.1368Z" fill="#FF0000"/>
<path d="M486.188 46.4211H497.442V54.1579H486.188V46.4211Z" fill="#FF0000"/>
<path d="M499.693 46.4211H510.948V54.1579H499.693V46.4211Z" fill="#FF0000"/>
<path d="M486.188 55.7053H497.442V63.4421H486.188V55.7053Z" fill="#FF0000"/>
<path d="M499.693 55.7053H510.948V63.4421H499.693V55.7053Z" fill="#FF0000"/>
<path d="M486.188 64.9895H497.442V72.7263H486.188V64.9895Z" fill="#FF0000"/>
<path d="M499.693 64.9895H510.948V72.7263H499.693V64.9895Z" fill="#FF0000"/>
<path d="M567.219 18.5684H578.474V26.3053H567.219V18.5684Z" fill="#FF0000"/>
<path d="M580.725 18.5684H591.979V26.3053H580.725V18.5684Z" fill="#FF0000"/>
<path d="M567.219 27.8526H578.474V35.5895H567.219V27.8526Z" fill="#FF0000"/>
<path d="M580.725 27.8526H591.979V35.5895H580.725V27.8526Z" fill="#FF0000"/>
<path d="M567.219 0H578.474V7.73684H567.219V0Z" fill="#FF0000"/>
<path d="M580.725 0H591.979V7.73684H580.725V0Z" fill="#FF0000"/>
<path d="M567.219 9.28421H578.474V17.0211H567.219V9.28421Z" fill="#FF0000"/>
<path d="M580.725 9.28421H591.979V17.0211H580.725V9.28421Z" fill="#FF0000"/>
<path d="M540.209 0H551.463V7.73684H540.209V0Z" fill="#FF0000"/>
<path d="M553.714 0H564.969V7.73684H553.714V0Z" fill="#FF0000"/>
<path d="M540.209 9.28421H551.463V17.0211H540.209V9.28421Z" fill="#FF0000"/>
<path d="M553.714 9.28421H564.969V17.0211H553.714V9.28421Z" fill="#FF0000"/>
<path d="M540.209 18.5684H551.463V26.3053H540.209V18.5684Z" fill="#FF0000"/>
<path d="M553.714 18.5684H564.969V26.3053H553.714V18.5684Z" fill="#FF0000"/>
<path d="M540.209 27.8526H551.463V35.5895H540.209V27.8526Z" fill="#FF0000"/>
<path d="M553.714 27.8526H564.969V35.5895H553.714V27.8526Z" fill="#FF0000"/>
<path d="M621.24 18.5684H632.495V26.3053H621.24V18.5684Z" fill="#FF0000"/>
<path d="M634.746 18.5684H646V26.3053H634.746V18.5684Z" fill="#FF0000"/>
<path d="M621.24 27.8526H632.495V35.5895H621.24V27.8526Z" fill="#FF0000"/>
<path d="M634.746 27.8526H646V35.5895H634.746V27.8526Z" fill="#FF0000"/>
<path d="M621.24 0H632.495V7.73684H621.24V0Z" fill="#FF0000"/>
<path d="M634.746 0H646V7.73684H634.746V0Z" fill="#FF0000"/>
<path d="M621.24 9.28421H632.495V17.0211H621.24V9.28421Z" fill="#FF0000"/>
<path d="M634.746 9.28421H646V17.0211H634.746V9.28421Z" fill="#FF0000"/>
<path d="M594.23 0H605.484V7.73684H594.23V0Z" fill="#FF0000"/>
<path d="M607.735 0H618.989V7.73684H607.735V0Z" fill="#FF0000"/>
<path d="M594.23 9.28421H605.484V17.0211H594.23V9.28421Z" fill="#FF0000"/>
<path d="M607.735 9.28421H618.989V17.0211H607.735V9.28421Z" fill="#FF0000"/>
<path d="M594.23 18.5684H605.484V26.3053H594.23V18.5684Z" fill="#FF0000"/>
<path d="M607.735 18.5684H618.989V26.3053H607.735V18.5684Z" fill="#FF0000"/>
<path d="M594.23 27.8526H605.484V35.5895H594.23V27.8526Z" fill="#FF0000"/>
<path d="M607.735 27.8526H618.989V35.5895H607.735V27.8526Z" fill="#FF0000"/>
<path d="M567.219 55.7053H578.474V63.4421H567.219V55.7053Z" fill="#FF0000"/>
<path d="M580.725 55.7053H591.979V63.4421H580.725V55.7053Z" fill="#FF0000"/>
<path d="M567.219 64.9895H578.474V72.7263H567.219V64.9895Z" fill="#FF0000"/>
<path d="M580.725 64.9895H591.979V72.7263H580.725V64.9895Z" fill="#FF0000"/>
<path d="M567.219 37.1368H578.474V44.8737H567.219V37.1368Z" fill="#FF0000"/>
<path d="M580.725 37.1368H591.979V44.8737H580.725V37.1368Z" fill="#FF0000"/>
<path d="M567.219 46.4211H578.474V54.1579H567.219V46.4211Z" fill="#FF0000"/>
<path d="M580.725 46.4211H591.979V54.1579H580.725V46.4211Z" fill="#FF0000"/>
<path d="M540.209 37.1368H551.463V44.8737H540.209V37.1368Z" fill="#FF0000"/>
<path d="M553.714 37.1368H564.969V44.8737H553.714V37.1368Z" fill="#FF0000"/>
<path d="M540.209 46.4211H551.463V54.1579H540.209V46.4211Z" fill="#FF0000"/>
<path d="M553.714 46.4211H564.969V54.1579H553.714V46.4211Z" fill="#FF0000"/>
<path d="M540.209 55.7053H551.463V63.4421H540.209V55.7053Z" fill="#FF0000"/>
<path d="M553.714 55.7053H564.969V63.4421H553.714V55.7053Z" fill="#FF0000"/>
<path d="M540.209 64.9895H551.463V72.7263H540.209V64.9895Z" fill="#FF0000"/>
<path d="M553.714 64.9895H564.969V72.7263H553.714V64.9895Z" fill="#FF0000"/>
<path d="M621.24 55.7053H632.495V63.4421H621.24V55.7053Z" fill="#FF0000"/>
<path d="M634.746 55.7053H646V63.4421H634.746V55.7053Z" fill="#FF0000"/>
<path d="M621.24 64.9895H632.495V72.7263H621.24V64.9895Z" fill="#FF0000"/>
<path d="M634.746 64.9895H646V72.7263H634.746V64.9895Z" fill="#FF0000"/>
<path d="M621.24 37.1368H632.495V44.8737H621.24V37.1368Z" fill="#FF0000"/>
<path d="M634.746 37.1368H646V44.8737H634.746V37.1368Z" fill="#FF0000"/>
<path d="M621.24 46.4211H632.495V54.1579H621.24V46.4211Z" fill="#FF0000"/>
<path d="M634.746 46.4211H646V54.1579H634.746V46.4211Z" fill="#FF0000"/>
<path d="M594.23 37.1368H605.484V44.8737H594.23V37.1368Z" fill="#FF0000"/>
<path d="M607.735 37.1368H618.989V44.8737H607.735V37.1368Z" fill="#FF0000"/>
<path d="M594.23 46.4211H605.484V54.1579H594.23V46.4211Z" fill="#FF0000"/>
<path d="M607.735 46.4211H618.989V54.1579H607.735V46.4211Z" fill="#FF0000"/>
<path d="M594.23 55.7053H605.484V63.4421H594.23V55.7053Z" fill="#FF0000"/>
<path d="M607.735 55.7053H618.989V63.4421H607.735V55.7053Z" fill="#FF0000"/>
<path d="M594.23 64.9895H605.484V72.7263H594.23V64.9895Z" fill="#FF0000"/>
<path d="M607.735 64.9895H618.989V72.7263H607.735V64.9895Z" fill="#FF0000"/>
<path d="M459.178 92.8421H470.432V100.579H459.178V92.8421Z" fill="#FF0000"/>
<path d="M472.683 92.8421H483.937V100.579H472.683V92.8421Z" fill="#FF0000"/>
<path d="M459.178 102.126H470.432V109.863H459.178V102.126Z" fill="#FF0000"/>
<path d="M472.683 102.126H483.937V109.863H472.683V102.126Z" fill="#FF0000"/>
<path d="M459.178 74.2737H470.432V82.0105H459.178V74.2737Z" fill="#FF0000"/>
<path d="M472.683 74.2737H483.937V82.0105H472.683V74.2737Z" fill="#FF0000"/>
<path d="M459.178 83.5579H470.432V91.2947H459.178V83.5579Z" fill="#FF0000"/>
<path d="M472.683 83.5579H483.937V91.2947H472.683V83.5579Z" fill="#FF0000"/>
<path d="M432.167 74.2737H443.422V82.0105H432.167V74.2737Z" fill="#FF0000"/>
<path d="M445.672 74.2737H456.927V82.0105H445.672V74.2737Z" fill="#FF0000"/>
<path d="M432.167 83.5579H443.422V91.2947H432.167V83.5579Z" fill="#FF0000"/>
<path d="M445.672 83.5579H456.927V91.2947H445.672V83.5579Z" fill="#FF0000"/>
<path d="M432.167 92.8421H443.422V100.579H432.167V92.8421Z" fill="#FF0000"/>
<path d="M445.672 92.8421H456.927V100.579H445.672V92.8421Z" fill="#FF0000"/>
<path d="M432.167 102.126H443.422V109.863H432.167V102.126Z" fill="#FF0000"/>
<path d="M445.672 102.126H456.927V109.863H445.672V102.126Z" fill="#FF0000"/>
<path d="M513.199 92.8421H524.453V100.579H513.199V92.8421Z" fill="#FF0000"/>
<path d="M526.704 92.8421H537.958V100.579H526.704V92.8421Z" fill="#FF0000"/>
<path d="M513.199 102.126H524.453V109.863H513.199V102.126Z" fill="#FF0000"/>
<path d="M526.704 102.126H537.958V109.863H526.704V102.126Z" fill="#FF0000"/>
<path d="M513.199 74.2737H524.453V82.0105H513.199V74.2737Z" fill="#FF0000"/>
<path d="M526.704 74.2737H537.958V82.0105H526.704V74.2737Z" fill="#FF0000"/>
<path d="M513.199 83.5579H524.453V91.2947H513.199V83.5579Z" fill="#FF0000"/>
<path d="M526.704 83.5579H537.958V91.2947H526.704V83.5579Z" fill="#FF0000"/>
<path d="M486.188 74.2737H497.442V82.0105H486.188V74.2737Z" fill="#FF0000"/>
<path d="M499.693 74.2737H510.948V82.0105H499.693V74.2737Z" fill="#FF0000"/>
<path d="M486.188 83.5579H497.442V91.2947H486.188V83.5579Z" fill="#FF0000"/>
<path d="M499.693 83.5579H510.948V91.2947H499.693V83.5579Z" fill="#FF0000"/>
<path d="M486.188 92.8421H497.442V100.579H486.188V92.8421Z" fill="#FF0000"/>
<path d="M499.693 92.8421H510.948V100.579H499.693V92.8421Z" fill="#FF0000"/>
<path d="M486.188 102.126H497.442V109.863H486.188V102.126Z" fill="#FF0000"/>
<path d="M499.693 102.126H510.948V109.863H499.693V102.126Z" fill="#FF0000"/>
<path d="M459.178 129.979H470.432V137.716H459.178V129.979Z" fill="#FF0000"/>
<path d="M472.683 129.979H483.937V137.716H472.683V129.979Z" fill="#FF0000"/>
<path d="M459.178 139.263H470.432V147H459.178V139.263Z" fill="#FF0000"/>
<path d="M472.683 139.263H483.937V147H472.683V139.263Z" fill="#FF0000"/>
<path d="M459.178 111.411H470.432V119.147H459.178V111.411Z" fill="#FF0000"/>
<path d="M472.683 111.411H483.937V119.147H472.683V111.411Z" fill="#FF0000"/>
<path d="M459.178 120.695H470.432V128.432H459.178V120.695Z" fill="#FF0000"/>
<path d="M472.683 120.695H483.937V128.432H472.683V120.695Z" fill="#FF0000"/>
<path d="M432.167 111.411H443.422V119.147H432.167V111.411Z" fill="#FF0000"/>
<path d="M445.672 111.411H456.927V119.147H445.672V111.411Z" fill="#FF0000"/>
<path d="M432.167 120.695H443.422V128.432H432.167V120.695Z" fill="#FF0000"/>
<path d="M445.672 120.695H456.927V128.432H445.672V120.695Z" fill="#FF0000"/>
<path d="M432.167 129.979H443.422V137.716H432.167V129.979Z" fill="#FF0000"/>
<path d="M445.672 129.979H456.927V137.716H445.672V129.979Z" fill="#FF0000"/>
<path d="M432.167 139.263H443.422V147H432.167V139.263Z" fill="#FF0000"/>
<path d="M445.672 139.263H456.927V147H445.672V139.263Z" fill="#FF0000"/>
<path d="M513.199 129.979H524.453V137.716H513.199V129.979Z" fill="#FF0000"/>
<path d="M526.704 129.979H537.958V137.716H526.704V129.979Z" fill="#FF0000"/>
<path d="M513.199 139.263H524.453V147H513.199V139.263Z" fill="#FF0000"/>
<path d="M526.704 139.263H537.958V147H526.704V139.263Z" fill="#FF0000"/>
<path d="M513.199 111.411H524.453V119.147H513.199V111.411Z" fill="#FF0000"/>
<path d="M526.704 111.411H537.958V119.147H526.704V111.411Z" fill="#FF0000"/>
<path d="M513.199 120.695H524.453V128.432H513.199V120.695Z" fill="#FF0000"/>
<path d="M526.704 120.695H537.958V128.432H526.704V120.695Z" fill="#FF0000"/>
<path d="M486.188 111.411H497.442V119.147H486.188V111.411Z" fill="#FF0000"/>
<path d="M499.693 111.411H510.948V119.147H499.693V111.411Z" fill="#FF0000"/>
<path d="M486.188 120.695H497.442V128.432H486.188V120.695Z" fill="#FF0000"/>
<path d="M499.693 120.695H510.948V128.432H499.693V120.695Z" fill="#FF0000"/>
<path d="M486.188 129.979H497.442V137.716H486.188V129.979Z" fill="#FF0000"/>
<path d="M499.693 129.979H510.948V137.716H499.693V129.979Z" fill="#FF0000"/>
<path d="M486.188 139.263H497.442V147H486.188V139.263Z" fill="#FF0000"/>
<path d="M499.693 139.263H510.948V147H499.693V139.263Z" fill="#FF0000"/>
<path d="M567.219 92.8421H578.474V100.579H567.219V92.8421Z" fill="#FF0000"/>
<path d="M580.725 92.8421H591.979V100.579H580.725V92.8421Z" fill="#FF0000"/>
<path d="M567.219 102.126H578.474V109.863H567.219V102.126Z" fill="#FF0000"/>
<path d="M580.725 102.126H591.979V109.863H580.725V102.126Z" fill="#FF0000"/>
<path d="M567.219 74.2737H578.474V82.0105H567.219V74.2737Z" fill="#FF0000"/>
<path d="M580.725 74.2737H591.979V82.0105H580.725V74.2737Z" fill="#FF0000"/>
<path d="M567.219 83.5579H578.474V91.2947H567.219V83.5579Z" fill="#FF0000"/>
<path d="M580.725 83.5579H591.979V91.2947H580.725V83.5579Z" fill="#FF0000"/>
<path d="M540.209 74.2737H551.463V82.0105H540.209V74.2737Z" fill="#FF0000"/>
<path d="M553.714 74.2737H564.969V82.0105H553.714V74.2737Z" fill="#FF0000"/>
<path d="M540.209 83.5579H551.463V91.2947H540.209V83.5579Z" fill="#FF0000"/>
<path d="M553.714 83.5579H564.969V91.2947H553.714V83.5579Z" fill="#FF0000"/>
<path d="M540.209 92.8421H551.463V100.579H540.209V92.8421Z" fill="#FF0000"/>
<path d="M553.714 92.8421H564.969V100.579H553.714V92.8421Z" fill="#FF0000"/>
<path d="M540.209 102.126H551.463V109.863H540.209V102.126Z" fill="#FF0000"/>
<path d="M553.714 102.126H564.969V109.863H553.714V102.126Z" fill="#FF0000"/>
<path d="M621.24 92.8421H632.495V100.579H621.24V92.8421Z" fill="#FF0000"/>
<path d="M634.746 92.8421H646V100.579H634.746V92.8421Z" fill="#FF0000"/>
<path d="M621.24 102.126H632.495V109.863H621.24V102.126Z" fill="#FF0000"/>
<path d="M634.746 102.126H646V109.863H634.746V102.126Z" fill="#FF0000"/>
<path d="M621.24 74.2737H632.495V82.0105H621.24V74.2737Z" fill="#FF0000"/>
<path d="M634.746 74.2737H646V82.0105H634.746V74.2737Z" fill="#FF0000"/>
<path d="M621.24 83.5579H632.495V91.2947H621.24V83.5579Z" fill="#FF0000"/>
<path d="M634.746 83.5579H646V91.2947H634.746V83.5579Z" fill="#FF0000"/>
<path d="M594.23 74.2737H605.484V82.0105H594.23V74.2737Z" fill="#FF0000"/>
<path d="M607.735 74.2737H618.989V82.0105H607.735V74.2737Z" fill="#FF0000"/>
<path d="M594.23 83.5579H605.484V91.2947H594.23V83.5579Z" fill="#FF0000"/>
<path d="M607.735 83.5579H618.989V91.2947H607.735V83.5579Z" fill="#FF0000"/>
<path d="M594.23 92.8421H605.484V100.579H594.23V92.8421Z" fill="#FF0000"/>
<path d="M607.735 92.8421H618.989V100.579H607.735V92.8421Z" fill="#FF0000"/>
<path d="M594.23 102.126H605.484V109.863H594.23V102.126Z" fill="#FF0000"/>
<path d="M607.735 102.126H618.989V109.863H607.735V102.126Z" fill="#FF0000"/>
<path d="M567.219 129.979H578.474V137.716H567.219V129.979Z" fill="#FF0000"/>
<path d="M580.725 129.979H591.979V137.716H580.725V129.979Z" fill="#FF0000"/>
<path d="M567.219 139.263H578.474V147H567.219V139.263Z" fill="#FF0000"/>
<path d="M580.725 139.263H591.979V147H580.725V139.263Z" fill="#FF0000"/>
<path d="M567.219 111.411H578.474V119.147H567.219V111.411Z" fill="#FF0000"/>
<path d="M580.725 111.411H591.979V119.147H580.725V111.411Z" fill="#FF0000"/>
<path d="M567.219 120.695H578.474V128.432H567.219V120.695Z" fill="#FF0000"/>
<path d="M580.725 120.695H591.979V128.432H580.725V120.695Z" fill="#FF0000"/>
<path d="M540.209 111.411H551.463V119.147H540.209V111.411Z" fill="#FF0000"/>
<path d="M553.714 111.411H564.969V119.147H553.714V111.411Z" fill="#FF0000"/>
<path d="M540.209 120.695H551.463V128.432H540.209V120.695Z" fill="#FF0000"/>
<path d="M553.714 120.695H564.969V128.432H553.714V120.695Z" fill="#FF0000"/>
<path d="M540.209 129.979H551.463V137.716H540.209V129.979Z" fill="#FF0000"/>
<path d="M553.714 129.979H564.969V137.716H553.714V129.979Z" fill="#FF0000"/>
<path d="M540.209 139.263H551.463V147H540.209V139.263Z" fill="#FF0000"/>
<path d="M553.714 139.263H564.969V147H553.714V139.263Z" fill="#FF0000"/>
<path d="M621.24 129.979H632.495V137.716H621.24V129.979Z" fill="#FF0000"/>
<path d="M634.746 129.979H646V137.716H634.746V129.979Z" fill="#FF0000"/>
<path d="M621.24 139.263H632.495V147H621.24V139.263Z" fill="#FF0000"/>
<path d="M634.746 139.263H646V147H634.746V139.263Z" fill="#FF0000"/>
<path d="M621.24 111.411H632.495V119.147H621.24V111.411Z" fill="#FF0000"/>
<path d="M634.746 111.411H646V119.147H634.746V111.411Z" fill="#FF0000"/>
<path d="M621.24 120.695H632.495V128.432H621.24V120.695Z" fill="#FF0000"/>
<path d="M634.746 120.695H646V128.432H634.746V120.695Z" fill="#FF0000"/>
<path d="M594.23 111.411H605.484V119.147H594.23V111.411Z" fill="#FF0000"/>
<path d="M607.735 111.411H618.989V119.147H607.735V111.411Z" fill="#FF0000"/>
<path d="M594.23 120.695H605.484V128.432H594.23V120.695Z" fill="#FF0000"/>
<path d="M607.735 120.695H618.989V128.432H607.735V120.695Z" fill="#FF0000"/>
<path d="M594.23 129.979H605.484V137.716H594.23V129.979Z" fill="#FF0000"/>
<path d="M607.735 129.979H618.989V137.716H607.735V129.979Z" fill="#FF0000"/>
<path d="M594.23 139.263H605.484V147H594.23V139.263Z" fill="#FF0000"/>
<path d="M607.735 139.263H618.989V147H607.735V139.263Z" fill="#FF0000"/>
</svg>
